# xmcd
#
# Track frame offsets:
#	150
#	19129
#	39873
#	62193
#	81782
#	102752
#	120838
#	142913
#	175436
#	198147
#	220141
#	243391
#	270089
#	296625
#	321597
#
# Disc length: 4549 seconds
#
# Revision: 1
# Processed by: cddbd v1.5.1PL0 Copyright (c) Steve Scherf et al.
# Submitted via: CDex 1.50Beta5
#
DISCID=cb11c30f
DTITLE=UA - Illuminate - The Very Best Songs Disc2
DYEAR=1900
DGENRE=
TTITLE0=ストロベリータイム
TTITLE1=ランドリーより愛を込めて
TTITLE2=あめふりヒヤデス
TTITLE3=Toro
TTITLE4=ロマンス
TTITLE5=電話をするよ
TTITLE6=アントニオの唄
TTITLE7=サマーメランコリック
TTITLE8=赤いあなた
TTITLE9=水色(New Mix)
TTITLE10=大きな木に甘えて
TTITLE11=温度
TTITLE12=ドア
TTITLE13=世界
TTITLE14=時空
EXTD=
EXTT0=
EXTT1=
EXTT2=
EXTT3=
EXTT4=
EXTT5=
EXTT6=
EXTT7=
EXTT8=
EXTT9=
EXTT10=
EXTT11=
EXTT12=
EXTT13=
EXTT14=
PLAYORDER=
